<mxfile host="app.diagrams.net" agent="Mozilla/5.0 (Windows NT 10.0; Win64; x64) AppleWebKit/537.36 (KHTML, like Gecko) Chrome/139.0.0.0 Safari/537.36 Edg/139.0.0.0" version="28.1.1">
  <diagram name="Страница — 1" id="Jow1OeaFJOFXGX1taunX">
    <mxGraphModel dx="1502" dy="383" grid="1" gridSize="10" guides="1" tooltips="1" connect="1" arrows="1" fold="1" page="1" pageScale="1" pageWidth="827" pageHeight="1169" math="0" shadow="0">
      <root>
        <mxCell id="0" />
        <mxCell id="1" parent="0" />
        <mxCell id="_3fbcZ-UaFknPs5vjPvc-5" value="" style="rounded=0;whiteSpace=wrap;html=1;" parent="1" vertex="1">
          <mxGeometry x="-10" y="235" width="710" height="310" as="geometry" />
        </mxCell>
        <mxCell id="z3YhTsL_gDp53mxOZ--C-1" value="Ссылка" style="swimlane;fontStyle=0;childLayout=stackLayout;horizontal=1;startSize=26;horizontalStack=0;resizeParent=1;resizeParentMax=0;resizeLast=0;collapsible=1;marginBottom=0;whiteSpace=wrap;html=1;fillColor=default;" parent="1" vertex="1">
          <mxGeometry x="20" y="325" width="150" height="130" as="geometry" />
        </mxCell>
        <mxCell id="z3YhTsL_gDp53mxOZ--C-2" value="Название&lt;div&gt;Картинка&lt;/div&gt;&lt;div&gt;Текущая цена&lt;/div&gt;&lt;div&gt;Старая цена&lt;/div&gt;&lt;div&gt;&lt;span style=&quot;background-color: transparent; color: light-dark(rgb(0, 0, 0), rgb(255, 255, 255));&quot;&gt;Характеристики&lt;/span&gt;&lt;/div&gt;&lt;div&gt;&lt;span style=&quot;background-color: transparent; color: light-dark(rgb(0, 0, 0), rgb(255, 255, 255));&quot;&gt;Время обновления&lt;/span&gt;&lt;/div&gt;" style="text;align=left;verticalAlign=top;spacingLeft=4;spacingRight=4;overflow=hidden;rotatable=0;points=[[0,0.5],[1,0.5]];portConstraint=eastwest;whiteSpace=wrap;html=1;fillColor=default;" parent="z3YhTsL_gDp53mxOZ--C-1" vertex="1">
          <mxGeometry y="26" width="150" height="104" as="geometry" />
        </mxCell>
        <mxCell id="z3YhTsL_gDp53mxOZ--C-5" value="Товаары" style="text;html=1;align=center;verticalAlign=middle;resizable=0;points=[];autosize=1;strokeColor=none;fillColor=none;" parent="1" vertex="1">
          <mxGeometry x="60" y="295" width="70" height="30" as="geometry" />
        </mxCell>
        <mxCell id="z3YhTsL_gDp53mxOZ--C-6" value="Ссылка" style="swimlane;fontStyle=0;childLayout=stackLayout;horizontal=1;startSize=26;horizontalStack=0;resizeParent=1;resizeParentMax=0;resizeLast=0;collapsible=1;marginBottom=0;whiteSpace=wrap;html=1;" parent="1" vertex="1">
          <mxGeometry x="390" y="350" width="140" height="50" as="geometry" />
        </mxCell>
        <mxCell id="_3fbcZ-UaFknPs5vjPvc-3" value="Название" style="text;align=left;verticalAlign=top;spacingLeft=4;spacingRight=4;overflow=hidden;rotatable=0;points=[[0,0.5],[1,0.5]];portConstraint=eastwest;whiteSpace=wrap;html=1;fillColor=default;" parent="z3YhTsL_gDp53mxOZ--C-6" vertex="1">
          <mxGeometry y="26" width="140" height="24" as="geometry" />
        </mxCell>
        <mxCell id="z3YhTsL_gDp53mxOZ--C-10" value="Категория" style="text;html=1;align=center;verticalAlign=middle;resizable=0;points=[];autosize=1;strokeColor=none;fillColor=none;" parent="1" vertex="1">
          <mxGeometry x="420" y="320" width="80" height="30" as="geometry" />
        </mxCell>
        <mxCell id="z3YhTsL_gDp53mxOZ--C-13" style="edgeStyle=orthogonalEdgeStyle;rounded=0;orthogonalLoop=1;jettySize=auto;html=1;exitX=1;exitY=0.5;exitDx=0;exitDy=0;entryX=0;entryY=0.75;entryDx=0;entryDy=0;endArrow=classic;endFill=1;" parent="1" source="z3YhTsL_gDp53mxOZ--C-11" target="z3YhTsL_gDp53mxOZ--C-6" edge="1">
          <mxGeometry relative="1" as="geometry">
            <mxPoint x="340" y="395" as="sourcePoint" />
          </mxGeometry>
        </mxCell>
        <mxCell id="z3YhTsL_gDp53mxOZ--C-11" value="Состоит из/в" style="rhombus;whiteSpace=wrap;html=1;" parent="1" vertex="1">
          <mxGeometry x="220" y="360" width="120" height="50" as="geometry" />
        </mxCell>
        <mxCell id="z3YhTsL_gDp53mxOZ--C-12" style="edgeStyle=orthogonalEdgeStyle;rounded=0;orthogonalLoop=1;jettySize=auto;html=1;exitX=0;exitY=0.5;exitDx=0;exitDy=0;entryX=0.997;entryY=0.401;entryDx=0;entryDy=0;entryPerimeter=0;endArrow=doubleBlock;endFill=1;dashed=1;dashPattern=8 8;" parent="1" source="z3YhTsL_gDp53mxOZ--C-11" target="z3YhTsL_gDp53mxOZ--C-2" edge="1">
          <mxGeometry relative="1" as="geometry" />
        </mxCell>
        <mxCell id="z3YhTsL_gDp53mxOZ--C-16" style="edgeStyle=orthogonalEdgeStyle;rounded=0;orthogonalLoop=1;jettySize=auto;html=1;exitX=0.5;exitY=1;exitDx=0;exitDy=0;entryX=0.75;entryY=1;entryDx=0;entryDy=0;endArrow=doubleBlock;endFill=1;dashed=1;dashPattern=8 8;" parent="1" source="z3YhTsL_gDp53mxOZ--C-14" target="z3YhTsL_gDp53mxOZ--C-6" edge="1">
          <mxGeometry relative="1" as="geometry">
            <Array as="points">
              <mxPoint x="620" y="430" />
              <mxPoint x="495" y="430" />
            </Array>
          </mxGeometry>
        </mxCell>
        <mxCell id="z3YhTsL_gDp53mxOZ--C-14" value="Яв-ся родителем" style="rhombus;whiteSpace=wrap;html=1;" parent="1" vertex="1">
          <mxGeometry x="560" y="352" width="120" height="50" as="geometry" />
        </mxCell>
        <mxCell id="z3YhTsL_gDp53mxOZ--C-15" style="edgeStyle=orthogonalEdgeStyle;rounded=0;orthogonalLoop=1;jettySize=auto;html=1;exitX=0.5;exitY=0;exitDx=0;exitDy=0;entryX=0.906;entryY=0.004;entryDx=0;entryDy=0;entryPerimeter=0;dashed=1;dashPattern=8 8;" parent="1" source="z3YhTsL_gDp53mxOZ--C-14" target="z3YhTsL_gDp53mxOZ--C-6" edge="1">
          <mxGeometry relative="1" as="geometry" />
        </mxCell>
      </root>
    </mxGraphModel>
  </diagram>
</mxfile>
